<svg xmlns="http://www.w3.org/2000/svg" viewBox="0 0 240 60" width="240" height="60">
  <style>
    .st0{fill:#0062cc;}
    .st1{fill:#333333;}
  </style>
  <g>
    <!-- Hexagon shape for the "hive" concept -->
    <path class="st0" d="M45,10L25,20v20l20,10l20-10V20L45,10z"/>
    <path fill="#ffffff" d="M45,15L30,22.5v15L45,45l15-7.5v-15L45,15z"/>
    <path class="st0" d="M45,20L35,25v10l10,5l10-5V25L45,20z"/>
    
    <!-- Text "Remote Hive" -->
    <g transform="translate(70, 38)">
      <path class="st1" d="M0.8-17.6h4.3v13.2h0.1l8.5-13.2h5.2l-8.8,13l9.3,17.2h-5.1l-7-13.6l-2.2,3.2v10.4H0.8V-17.6z"/>
      <path class="st1" d="M32.8-18.2c5.3,0,8.2,3.8,8.2,8.4c0,4.6-3,8.4-8.2,8.4s-8.2-3.8-8.2-8.4C24.6-14.4,27.5-18.2,32.8-18.2z
       M32.8-5.2c2.9,0,4.2-2.3,4.2-4.6c0-2.3-1.3-4.6-4.2-4.6s-4.2,2.3-4.2,4.6C28.6-7.5,29.9-5.2,32.8-5.2z"/>
      <path class="st1" d="M44.1-17.6h8.3c4.7,0,8.5,1.7,8.5,7c0,5.3-3.8,7-8.5,7h-4v9.2h-4.3V-17.6z M52.4-7.4
       c2.8,0,4.2-1.2,4.2-3.2c0-2-1.4-3.2-4.2-3.2h-4v6.4H52.4z"/>
      <path class="st1" d="M70.8-17.6h4.3v19.6h9.5v4h-13.8V-17.6z"/>
      <path class="st1" d="M86.8-17.6h4.3v19.6h9.5v4H86.8V-17.6z"/>
      <path class="st1" d="M112.8-18.2c5.3,0,8.2,3.8,8.2,8.4c0,4.6-3,8.4-8.2,8.4s-8.2-3.8-8.2-8.4C104.6-14.4,107.5-18.2,112.8-18.2z
       M112.8-5.2c2.9,0,4.2-2.3,4.2-4.6c0-2.3-1.3-4.6-4.2-4.6s-4.2,2.3-4.2,4.6C108.6-7.5,109.9-5.2,112.8-5.2z"/>
      <path class="st0" d="M130.1-17.6h4.1v4h-4.1V-17.6z M130.1-11.6h4.1v23.2h-4.1V-11.6z"/>
      <path class="st0" d="M139.4-11.6h3.9v3.2h0.1c1.1-2.1,3.3-3.8,6.4-3.8c4.4,0,6.9,3.5,6.9,7.8v16h-4.1v-14.7c0-2.8-1.2-5.1-4.2-5.1
       c-3.3,0-4.9,2.6-4.9,5.8v14.1h-4.1V-11.6z"/>
      <path class="st0" d="M167.8-11.6h3.9v3.2h0.1c1.1-2.1,3.3-3.8,6.4-3.8c4.4,0,6.9,3.5,6.9,7.8v16H181v-14.7c0-2.8-1.2-5.1-4.2-5.1
       c-3.3,0-4.9,2.6-4.9,5.8v14.1h-4.1V-11.6z"/>
    </g>
  </g>
</svg>