<svg xmlns="http://www.w3.org/2000/svg" viewBox="0 0 500 500" width="500" height="500">
  <style>
    .st0{fill:#0062cc;}
    .st1{fill:#e6f1ff;}
    .st2{fill:#ffffff;}
    .st3{fill:#cce4ff;}
    .st4{fill:#6c757d;}
  </style>
  <circle class="st1" cx="250" cy="250" r="200"/>
  <path class="st0" d="M162.2,168.4h32.1v133.3h-32.1V168.4z"/>
  <path class="st0" d="M222.4,168.4c30.2,0,54.7,29.8,54.7,66.6c0,36.8-24.5,66.6-54.7,66.6h-14.9V168.4H222.4z M222.4,198
    c-13.3,0-24.1,16.5-24.1,37c0,20.4,10.8,37,24.1,37c13.3,0,24.1-16.5,24.1-37C246.5,214.5,235.7,198,222.4,198z"/>
  <path class="st0" d="M305.8,168.4h32.1v133.3h-32.1V168.4z"/>
  <path class="st3" d="M162.2,138.2h32.1v24.1h-32.1V138.2z"/>
  <path class="st3" d="M305.8,138.2h32.1v24.1h-32.1V138.2z"/>
  <path class="st3" d="M207.5,138.2h32.1v24.1h-32.1V138.2z"/>
  <path class="st4" d="M250,370c-66.3,0-120-53.7-120-120s53.7-120,120-120s120,53.7,120,120S316.3,370,250,370z M250,138
    c-61.8,0-112,50.2-112,112s50.2,112,112,112s112-50.2,112-112S311.8,138,250,138z"/>
</svg>