<svg xmlns="http://www.w3.org/2000/svg" viewBox="0 0 500 500" width="500" height="500">
  <style>
    .st0{fill:#dc3545;}
    .st1{fill:#ffebee;}
    .st2{fill:#ffffff;}
    .st3{fill:#ffcdd2;}
    .st4{fill:#6c757d;}
  </style>
  <circle class="st1" cx="250" cy="250" r="200"/>
  <path class="st0" d="M167.5,170.1h38.3c13,0,22.8,2.6,29.6,7.8c6.8,5.2,10.2,12.8,10.2,22.7c0,6.6-1.8,12.1-5.5,16.6
    c-3.7,4.5-8.6,7.2-14.8,8.2v0.8c7.8,1.6,13.5,4.8,17.2,9.5c3.7,4.7,5.5,10.7,5.5,18c0,10.6-3.8,19-11.3,25.2
    c-7.5,6.2-17.8,9.3-30.8,9.3h-38.3V170.1z M195.9,216.1c5.8,0,10.2-1.2,13.1-3.5c2.9-2.3,4.4-5.8,4.4-10.4c0-4.3-1.6-7.6-4.7-9.9
    c-3.2-2.3-7.8-3.4-13.9-3.4h-10.5v27.2H195.9z M198.8,269.2c6.9,0,12-1.5,15.5-4.4c3.5-2.9,5.2-7.2,5.2-12.8
    c0-5.4-1.8-9.4-5.3-12.3c-3.5-2.8-8.9-4.2-16.1-4.2h-13.8v33.7H198.8z"/>
  <path class="st0" d="M301.1,229.9c-4-1.5-8.7-2.3-14.2-2.3c-7.6,0-13.4,3.5-17.3,10.5c-3.9,7-5.9,17-5.9,30
    c0,25.8,7.9,38.7,23.6,38.7c8.3,0,16.5-2.1,24.6-6.2v19.7c-7.8,3.8-17.3,5.7-28.6,5.7c-15.1,0-26.6-4.6-34.4-13.8
    c-7.8-9.2-11.7-22.7-11.7-40.6c0-11.5,2.1-21.6,6.3-30.1c4.2-8.6,10.2-15.2,18-19.8c7.8-4.6,16.8-6.9,27.1-6.9
    c10.1,0,19.9,2.5,29.5,7.4l-8.3,18.1C306.7,232.5,304,231.4,301.1,229.9z"/>
  <path class="st3" d="M167.5,140.1h32.1v24.1h-32.1V140.1z"/>
  <path class="st3" d="M245,140.1h32.1v24.1H245V140.1z"/>
  <path class="st3" d="M300,140.1h32.1v24.1H300V140.1z"/>
  <path class="st4" d="M250,370c-66.3,0-120-53.7-120-120s53.7-120,120-120s120,53.7,120,120S316.3,370,250,370z M250,138
    c-61.8,0-112,50.2-112,112s50.2,112,112,112s112-50.2,112-112S311.8,138,250,138z"/>
</svg>